<?xml version="1.0" encoding="utf-8"?>
<!-- Generator: Adobe Illustrator 24.2.3, SVG Export Plug-In . SVG Version: 6.00 Build 0)  -->
<svg version="1.1" id="Layer_1" xmlns="http://www.w3.org/2000/svg" xmlns:xlink="http://www.w3.org/1999/xlink" x="0px" y="0px"
	 viewBox="0 0 1771.5 1064.9" style="enable-background:new 0 0 1771.5 1064.9;" xml:space="preserve">
<style type="text/css">
	.st0{fill:none;}
	.st1{fill:#1A55A5;}
	.st2{fill-rule:evenodd;clip-rule:evenodd;fill:#1D79CC;}
	.st3{fill-rule:evenodd;clip-rule:evenodd;fill:#0064B2;}
	.st4{opacity:0.8;}
	.st5{clip-path:url(#SVGID_2_);fill-rule:evenodd;clip-rule:evenodd;fill:#E7E6E6;}
	.st6{clip-path:url(#SVGID_4_);fill:#1D79CC;}
	.st7{clip-path:url(#SVGID_6_);fill:#1D79CC;}
	.st8{clip-path:url(#SVGID_8_);fill:url(#SVGID_9_);}
	.st9{clip-path:url(#SVGID_11_);fill:#919396;}
	.st10{fill:#0064B2;}
	.st11{fill-rule:evenodd;clip-rule:evenodd;fill:url(#SVGID_12_);}
	.st12{clip-path:url(#SVGID_14_);fill:url(#SVGID_15_);}
	.st13{filter:url(#Adobe_OpacityMaskFilter);}
	.st14{enable-background:new    ;}
	.st15{clip-path:url(#SVGID_18_);}
	.st16{filter:url(#Adobe_OpacityMaskFilter_1_);}
	.st17{clip-path:url(#SVGID_20_);mask:url(#SVGID_16_);fill:url(#SVGID_21_);}
	.st18{opacity:0.5;}
	.st19{clip-path:url(#SVGID_23_);}
	.st20{clip-path:url(#SVGID_25_);fill:url(#SVGID_26_);}
	.st21{opacity:0.3;}
	.st22{clip-path:url(#SVGID_28_);fill-rule:evenodd;clip-rule:evenodd;fill:#919396;}
	.st23{fill-rule:evenodd;clip-rule:evenodd;fill:#1768C1;}
	.st24{filter:url(#Adobe_OpacityMaskFilter_2_);}
	.st25{clip-path:url(#SVGID_33_);}
	.st26{filter:url(#Adobe_OpacityMaskFilter_3_);}
	.st27{clip-path:url(#SVGID_35_);mask:url(#SVGID_31_);fill:url(#SVGID_36_);}
	.st28{clip-path:url(#SVGID_38_);}
	.st29{clip-path:url(#SVGID_40_);fill:url(#SVGID_41_);}
	.st30{opacity:0.2;}
	.st31{clip-path:url(#SVGID_43_);fill-rule:evenodd;clip-rule:evenodd;fill:#919396;}
	.st32{filter:url(#Adobe_OpacityMaskFilter_4_);}
	.st33{clip-path:url(#SVGID_48_);}
	.st34{filter:url(#Adobe_OpacityMaskFilter_5_);}
	.st35{clip-path:url(#SVGID_50_);mask:url(#SVGID_46_);fill:url(#SVGID_51_);}
	.st36{clip-path:url(#SVGID_53_);}
	.st37{clip-path:url(#SVGID_55_);fill:url(#SVGID_56_);}
	.st38{fill-rule:evenodd;clip-rule:evenodd;fill:#919396;}
	.st39{clip-path:url(#SVGID_59_);fill:url(#SVGID_60_);}
	.st40{opacity:2.000000e-02;}
	.st41{clip-path:url(#SVGID_62_);fill:#FFFFFF;}
</style>
<rect class="st0" width="1771.5" height="1064.9"/>
<g>
	<g>
		<g>
			<path class="st1" d="M820.9,195.9h-39.7v36.9h39.7V195.9z"/>
			<path class="st1" d="M798.8,455.5c36,0,68.1-18.9,86-50.5l1.6-2.8h373.3l1.6,2.1c13.2,16.9,33.1,25.5,59.3,25.5
				c44.1,0,73.7-29.4,73.7-73.1c0-44-29.6-72.4-75.3-72.4c-43.3,0-70.3,26.1-72.3,69.8l-0.2,5.2h-62.7l0.6-16.7
				c-0.7-33.2-8.3-59.5-23.4-80.7c-19.5-28.1-56.9-50-91-53.3h0l-4.2,43.3h0c46.2,4.8,74.2,38.8,75,90.9l0,0.1l-0.6,16.4h-30.6
				l2.4-7.2c2.1-6.5,3.2-13.2,3.2-20.8c0-38.1-27.3-63.8-67.9-63.8c-40.6,0-68,25.6-68,63.8c0,7.5,1,14.3,3.2,20.8l2.4,7.2l-84.7,0
				V257.1h-44.9v85.3c0,42.8-22.5,71.5-56.1,71.5c-34.3,0-56.4-28.1-56.4-71.5v-85.3h-45.2v89.4C697.5,407.7,742,455.5,798.8,455.5z
				 M1318,320.3h3.2c18.9,0,28.5,12.8,28.5,38.1c0,20.9-11.7,34.9-29.2,34.9c-18.6,0-30.1-14.1-30.1-36.9
				C1290.5,335.1,1301.8,320.3,1318,320.3z M1047.2,303.9c15.2,0,25,10.7,25,27.3c0,16.2-10.7,28.5-25,28.5
				c-14.1,0-24.7-12.3-24.7-28.5C1022.5,314.6,1032.2,303.9,1047.2,303.9z"/>
			<path class="st1" d="M858.7,462.7c-10.4,10-15.4,23.8-15.4,42.3v81.3c0,19.1,5.3,33.2,16.3,43.1c11,9.9,27.3,14.9,48.6,14.9h43
				V596h-36c-8.5,0-13.7-0.9-17-2.8c-2.8-1.7-6.2-5.3-6.2-13.3c0-7.1,3.1-10.8,5.7-12.6c3.3-2.3,8.1-3.4,14.8-3.4h34.8v-35.3h-28.6
				c-7.7,0-12.9-1-16.4-3.2c-2.9-1.8-6.4-5.5-6.4-13.1c0-5.9,2.8-15.8,21.4-15.8h33.9v-48.7H903C883.9,447.9,869,452.9,858.7,462.7z
				"/>
			<rect x="1086.8" y="447.9" class="st1" width="50.8" height="196.5"/>
			<polygon class="st1" points="1048.3,447.9 997.5,447.9 997.5,644.4 1048.3,644.4 1048.3,565.8 1065.5,565.8 1065.5,522 
				1048.3,522 			"/>
			<path class="st1" d="M1259.9,442.7c-23.6,0-42.1,6.6-54.9,19.6c-12.8,13-19.3,31.7-19.3,55.7v126.5h50.8V595h17.8v-43.8h-17.8
				v-31.3c0-23.5,12.5-27,19.9-27c8.7,0,12.9,4,15,7.3c2.5,4.1,3.7,10.4,3.7,19.7v124.5h50.8V515.8c0-25.2-5.4-44-16.1-55.7
				C1299.3,448.6,1282.5,442.7,1259.9,442.7z"/>
			<path class="st1" d="M1442.1,442.7c-22.2,0-39.4,6.4-52.6,19.7c-13.2,13.2-19.6,30.5-19.6,52.8v129.2h50.8V517.3
				c0-21.3,11.6-24.4,18.5-24.4c7.1,0,19,3.2,19,24.4v127.1h50.8V517.3c0-24.3-5.8-43.1-17.2-55.8
				C1480.4,448.9,1464.1,442.7,1442.1,442.7z"/>
			<path class="st1" d="M735.5,445.2c-3.3,1-6.3,2.2-8.9,3.7c-7.2,4.1-14.1,11.1-20.6,20.8l-4.8,7.3l-4.4-7.5
				c-10.5-17.9-25-26.6-44.4-26.6c-16.5,0-29.6,5.2-39.8,15.9c-10.3,10.8-15.4,24.4-15.4,41.7v144.1h50.8V515c0-19.1,9.1-22,14.6-22
				c7.1,0,10.2,4,11.4,6.3c1.6,3.1,2.2,7.9,2.2,15.7v129.5h50.8V514c0-18.2,9.1-20.9,14.6-20.9c7.2,0,10.2,4,11.3,6.3
				c1.5,3,2.1,7.9,2.1,15.7v129.5h50.8V505.8c0-17-3.1-30.8-9.3-41.1C774.5,464.1,753.5,457.4,735.5,445.2z"/>
		</g>
		<g>
			<path class="st1" d="M148.6,933.9v-47.7h20v6.8h-12.5v13.5h10.8v6.8h-10.8v13.9h12.5v6.8H148.6z"/>
			<path class="st1" d="M208.6,933.9l-11.3-28.3v28.3h-7.5v-47.7h6.7l11.2,28.3v-28.3h7.5v47.7H208.6z"/>
			<path class="st1" d="M255.9,933.9l-6.2-19.6h-4.2v19.6H238v-47.7H250c8.7,0,12.2,4.2,12.2,14.1c0,5.9-1.2,10.1-5.6,12.5l7.1,21.2
				H255.9z M250.1,892.9h-4.6v14.6h4.6c4,0,4.6-3.3,4.6-7.3C254.7,896.3,254.1,892.9,250.1,892.9z"/>
			<path class="st1" d="M284.7,933.9v-47.7h7.5v47.7H284.7z"/>
			<path class="st1" d="M334.7,931.4c-2.1,2-4.6,3-8.2,3c-4.4,0-7.3-1.7-9.2-4.1c-3.1-3.8-3.5-9-3.5-20.3s0.3-16.5,3.5-20.3
				c1.9-2.3,4.8-4.1,9.2-4.1c3.6,0,6.2,1.1,8.4,3.1c2.4,2.2,3.7,5.8,3.8,10.1h-7.5c-0.1-1.7-0.3-3.5-1.1-4.6
				c-0.7-1.1-1.7-1.7-3.5-1.7c-1.8,0-2.9,0.7-3.6,1.8c-1.5,2.3-1.7,7.1-1.7,15.8s0.2,13.5,1.7,15.8c0.7,1.1,1.7,1.8,3.6,1.8
				c1.8,0,2.9-0.7,3.5-1.7c0.8-1.2,1.1-2.9,1.1-4.7h7.5C338.5,925.5,337.1,929.2,334.7,931.4z"/>
			<path class="st1" d="M376.5,933.9V913h-9.3v20.8h-7.5v-47.7h7.5v20.1h9.3v-20.1h7.5v47.7H376.5z"/>
			<path class="st1" d="M444.9,915.2v18.7h-7.5v-18.7l-9.2-29h8.3l4.7,18.9l4.8-18.9h8.2L444.9,915.2z"/>
			<path class="st1" d="M492.9,930.3c-1.9,2.3-4.8,4.1-9.2,4.1c-4.4,0-7.3-1.7-9.2-4.1c-3.1-3.8-3.5-9-3.5-20.3s0.3-16.5,3.5-20.3
				c1.9-2.3,4.8-4.1,9.2-4.1c4.4,0,7.3,1.7,9.2,4.1c3.2,3.8,3.5,9,3.5,20.3S496.2,926.6,492.9,930.3z M487.3,894.2
				c-0.7-1.1-1.8-1.8-3.6-1.8c-1.8,0-2.9,0.7-3.6,1.8c-1.4,2.3-1.7,7.1-1.7,15.8s0.3,13.5,1.7,15.8c0.7,1.1,1.7,1.8,3.6,1.8
				c1.8,0,2.9-0.7,3.6-1.8c1.4-2.3,1.6-7.1,1.6-15.8S488.7,896.5,487.3,894.2z"/>
			<path class="st1" d="M538.5,930.9c-2.3,2.3-5.3,3.5-8.8,3.5s-6.6-1.1-8.9-3.5c-2.1-2.1-3.3-5.2-3.3-8.8v-36h7.5v36.4
				c0,3.4,2.1,5.1,4.7,5.1c2.5,0,4.6-1.7,4.6-5.1v-36.4h7.5v36C541.8,925.8,540.6,928.8,538.5,930.9z"/>
			<path class="st1" d="M582.1,933.9l-6.2-19.6h-4.2v19.6h-7.5v-47.7h12.1c8.7,0,12.2,4.2,12.2,14.1c0,5.9-1.2,10.1-5.6,12.5
				l7.1,21.2H582.1z M576.3,892.9h-4.6v14.6h4.6c4,0,4.6-3.3,4.6-7.3C580.9,896.3,580.3,892.9,576.3,892.9z"/>
			<path class="st1" d="M653.1,933.9V913h-9.3v20.8h-7.5v-47.7h7.5v20.1h9.3v-20.1h7.5v47.7H653.1z"/>
			<path class="st1" d="M704,930.9c-2.3,2.3-5.3,3.5-8.8,3.5s-6.6-1.1-8.9-3.5c-2.1-2.1-3.3-5.2-3.3-8.8v-36h7.5v36.4
				c0,3.4,2.1,5.1,4.7,5.1c2.5,0,4.6-1.7,4.6-5.1v-36.4h7.5v36C707.3,925.8,706.1,928.8,704,930.9z"/>
			<path class="st1" d="M754.2,933.9v-29.7l-6.5,19.6h-4.2l-6.4-19.2v29.4h-7.5v-47.7h6.8l9.2,25.1l9.2-25.1h6.8v47.7H754.2z"/>
			<path class="st1" d="M803.6,933.9l-1.9-9.4h-11.1l-1.9,9.4h-7.9l11.7-47.7h7.3l11.6,47.7H803.6z M796.1,897.7l-4.1,20h8.2
				L796.1,897.7z"/>
			<path class="st1" d="M849.3,933.9L838,905.5v28.3h-7.5v-47.7h6.7l11.2,28.3v-28.3h7.5v47.7H849.3z"/>
			<path class="st1" d="M923.8,931.4c-2.1,2-4.6,3-8.2,3c-4.4,0-7.3-1.7-9.2-4.1c-3.1-3.8-3.5-9-3.5-20.3s0.3-16.5,3.5-20.3
				c1.9-2.3,4.8-4.1,9.2-4.1c3.6,0,6.2,1.1,8.4,3.1c2.4,2.2,3.7,5.8,3.8,10.1h-7.5c-0.1-1.7-0.3-3.5-1.1-4.6
				c-0.7-1.1-1.7-1.7-3.5-1.7c-1.8,0-2.9,0.7-3.6,1.8c-1.5,2.3-1.7,7.1-1.7,15.8s0.2,13.5,1.7,15.8c0.7,1.1,1.7,1.8,3.6,1.8
				c1.8,0,2.9-0.7,3.5-1.7c0.8-1.2,1.1-2.9,1.1-4.7h7.5C927.6,925.5,926.2,929.2,923.8,931.4z"/>
			<path class="st1" d="M967.2,933.9l-1.9-9.4h-11.1l-1.9,9.4h-7.9l11.7-47.7h7.3l11.6,47.7H967.2z M959.7,897.7l-4.1,20h8.2
				L959.7,897.7z"/>
			<path class="st1" d="M1006.2,915.2h-4.5v18.7h-7.5v-47.7h12c8.6,0,12.3,4.6,12.3,14.5C1018.4,910.7,1014.8,915.2,1006.2,915.2z
				 M1005.9,892.9h-4.2v15.5h4.2c4,0,5-2.9,5-7.7C1010.9,895.9,1009.9,892.9,1005.9,892.9z"/>
			<path class="st1" d="M1039.6,933.9v-47.7h7.5v47.7H1039.6z"/>
			<path class="st1" d="M1082.8,892.9v40.9h-7.5v-40.9h-8v-6.8h23.5v6.8H1082.8z"/>
			<path class="st1" d="M1127.4,933.9l-1.9-9.4h-11.1l-1.9,9.4h-7.9l11.7-47.7h7.3l11.6,47.7H1127.4z M1119.9,897.7l-4.1,20h8.2
				L1119.9,897.7z"/>
			<path class="st1" d="M1154.4,933.9v-47.7h7.5v40.9h12.5v6.8H1154.4z"/>
			<path class="st1" d="M1220.1,933.9v-47.7h20v6.8h-12.5v13.5h10.8v6.8h-10.8v13.9h12.5v6.8H1220.1z"/>
			<path class="st1" d="M1277.3,933.9l-5.5-17.2l-5.5,17.2h-8.2l9.4-24.7l-8.7-23h8.2l4.8,15.9l4.8-15.9h8.2l-8.9,23l9.6,24.7
				H1277.3z"/>
			<path class="st1" d="M1317,915.2h-4.5v18.7h-7.5v-47.7h12c8.6,0,12.3,4.6,12.3,14.5C1329.3,910.7,1325.7,915.2,1317,915.2z
				 M1316.8,892.9h-4.2v15.5h4.2c4,0,5-2.9,5-7.7C1321.8,895.9,1320.8,892.9,1316.8,892.9z"/>
			<path class="st1" d="M1350.5,933.9v-47.7h20v6.8H1358v13.5h10.8v6.8H1358v13.9h12.5v6.8H1350.5z"/>
			<path class="st1" d="M1409.7,933.9l-6.2-19.6h-4.2v19.6h-7.5v-47.7h12.1c8.7,0,12.2,4.2,12.2,14.1c0,5.9-1.2,10.1-5.6,12.5
				l7.1,21.2H1409.7z M1403.9,892.9h-4.6v14.6h4.6c4,0,4.6-3.3,4.6-7.3C1408.5,896.3,1407.9,892.9,1403.9,892.9z"/>
			<path class="st1" d="M1438.5,933.9v-47.7h7.5v47.7H1438.5z"/>
			<path class="st1" d="M1468.8,933.9v-47.7h20v6.8h-12.5v13.5h10.8v6.8h-10.8v13.9h12.5v6.8H1468.8z"/>
			<path class="st1" d="M1528.8,933.9l-11.3-28.3v28.3h-7.5v-47.7h6.7l11.2,28.3v-28.3h7.5v47.7H1528.8z"/>
			<path class="st1" d="M1577.9,931.4c-2.1,2-4.6,3-8.2,3c-4.4,0-7.3-1.7-9.2-4.1c-3.2-3.8-3.5-9-3.5-20.3s0.3-16.5,3.5-20.3
				c1.9-2.3,4.8-4.1,9.2-4.1c3.6,0,6.2,1.1,8.4,3.1c2.4,2.2,3.7,5.8,3.8,10.1h-7.5c-0.1-1.7-0.3-3.5-1.1-4.6
				c-0.7-1.1-1.7-1.7-3.6-1.7c-1.8,0-2.9,0.7-3.6,1.8c-1.5,2.3-1.7,7.1-1.7,15.8s0.2,13.5,1.7,15.8c0.7,1.1,1.7,1.8,3.6,1.8
				c1.8,0,2.9-0.7,3.6-1.7c0.8-1.2,1.1-2.9,1.1-4.7h7.5C1581.7,925.5,1580.3,929.2,1577.9,931.4z"/>
			<path class="st1" d="M1602.9,933.9v-47.7h20v6.8h-12.5v13.5h10.8v6.8h-10.8v13.9h12.5v6.8H1602.9z"/>
		</g>
		<g>
			<g>
				<path class="st2" d="M327.6,523.9l-26.1-183.1c-2.5,0-16.6,0.7-19.6,0.7c-1.5,19.9-3,33.6-4.6,53.7c-0.6,0.1-1.2,0.3-1.8,0.4
					c-9.1-24-18.2-48-28-73.9c-9.6,3.8-18.8,6.7-27.2,10.9c-15.6,7.7-24.7,20-25.6,38.1c-0.3,5.3-0.1,11.1,0.2,17.1
					C211.6,453.6,262.5,505.7,327.6,523.9"/>
				<path class="st2" d="M559.3,397.9c1.1-9.7,1.6-18.9,1.2-27.1c-1-18.1-10.1-30.4-25.7-38.1c-8.4-4.2-17.5-7.1-27.2-10.9
					c-9.8,25.8-18.9,49.8-28,73.9c-0.6-0.1-1.2-0.3-1.8-0.4c-1.5-20.2-3.1-33.8-4.6-53.7c-3,0-17-0.7-19.6-0.7l-26.1,183.6
					C490.2,507.5,540.1,459.5,559.3,397.9"/>
			</g>
			<path class="st3" d="M512.5,422.6c-4.4-1.1-7-4.1-8.3-6.2l-33.9-70.8l-0.1,0c-3.9-10.5-12-18.4-23.1-23.9
				c-8.4-4.2-17.5-7.1-27.2-10.9c-9.8,25.8-18.9,49.9-28,73.9c-0.6-0.1-1.2-0.3-1.8-0.4c-1.5-20.2-3.1-33.9-4.6-53.7h-8h-7.9
				c-1.5,19.9-3,33.5-4.6,53.7c-0.6,0.1-1.2,0.2-1.8,0.4c-9.1-24-18.2-48-28-73.9c-9.7,3.8-18.8,6.7-27.2,10.9
				c-11.1,5.5-19.2,13.3-23.1,23.9l0,0l-33.9,70.8c-1.3,2.1-3.9,5.1-8.3,6.2c-8.3,2-21.7,5.1-33,4.6c6.6,12.9,14.5,25,23.7,36
				l27.9-3c12.2-2,17.3-10.7,17.3-10.7l18.5-26c1.6,15.9,6,51.2,11.5,94.1c21.6,8.6,45.1,13.5,69.8,13.5c24,0,46.9-4.6,68-12.8
				c5.6-43.2,10-78.7,11.6-94.8l18.5,26c0,0,5.1,8.7,17.3,10.7l29.4,3.2c9.3-11.1,17.3-23.2,23.9-36.2
				C535.6,428.1,521.3,424.7,512.5,422.6"/>
			<g class="st4">
				<g>
					<defs>
						<rect id="SVGID_1_" x="194.6" y="345.5" width="366.1" height="185.5"/>
					</defs>
					<clipPath id="SVGID_2_">
						<use xlink:href="#SVGID_1_"  style="overflow:visible;"/>
					</clipPath>
					<path class="st5" d="M523.4,463.3c0.2-0.3,0.4-0.5,0.6-0.8c4.4-5.3,8.5-10.8,12.4-16.6v0c9.8-14.7,17.6-30.8,23-48.1
						c1.1-9.7,1.6-18.9,1.2-27.1c-0.6-10.2-3.8-18.6-9.2-25.3c-5.3,86.5-81.1,155.3-173.6,155.3c-92.6,0-168.3-68.9-173.7-155.3
						c-5.4,6.8-8.7,15.1-9.2,25.3c-0.3,5.3-0.1,11.1,0.2,17.1c3.5,13.8,8.6,26.9,14.9,39.3c0,0-0.1,0-0.1,0c0.5,0.9,1,1.7,1.5,2.6
						c2.6,4.8,5.3,9.6,8.2,14.1c1.2,1.9,2.5,3.7,3.8,5.5c2.3,3.3,4.7,6.5,7.2,9.6c1,1.3,2,2.8,3,4.1l0.2,0
						c20,23.8,45.7,42.5,75,54.2c0,0.1,0,0.1,0,0.2c1.1,0.5,2.3,0.8,3.3,1.2c2.9,1.1,5.8,2,8.7,3c2.1,0.7,4.3,1.4,6.4,2
						c0.1,0,0.3,0.1,0.4,0.1v0c11.6,3.3,23.6,5.5,35.9,6.5c3.8,0.3,7.6,0.5,11.5,0.6c1,0,2,0.1,3,0.1c5.6,0,11.1-0.4,16.6-0.8
						c11.3-1,22.4-3,33-5.9v0c0.2-0.1,0.5-0.2,0.7-0.2c2-0.5,4-1.2,6-1.8c3.1-1,6.2-2,9.3-3.1c1-0.4,2-0.6,3-1c0,0,0-0.1,0-0.1
						C476.5,506.5,502.9,487.5,523.4,463.3L523.4,463.3z"/>
				</g>
			</g>
			<g>
				<g>
					<defs>
						<path id="SVGID_3_" d="M242.1,562.4c6.8,19.2,14.5,26.3,26.9,26.6c5.2,22.2,59.2,204.5,59.2,204.5c8.4-2.4,15.3-1,15.3-1
							c-7.5-0.4-16.1,3.4-16.1,3.4c-9.1,5-5.8,21.9-5.8,21.9h33.9c9.5,0,9.5-14.6,9.5-14.6v-16.6l-35.9-252.1
							c-55-14.1-100.9-51-126.9-100.1C212.6,480.6,231.1,531.3,242.1,562.4"/>
					</defs>
					<use xlink:href="#SVGID_3_"  style="overflow:visible;fill:#1768C1;"/>
					<clipPath id="SVGID_4_">
						<use xlink:href="#SVGID_3_"  style="overflow:visible;"/>
					</clipPath>
					<rect x="202.2" y="434.4" class="st6" width="162.8" height="383.4"/>
				</g>
				<g>
					<defs>
						<path id="SVGID_5_" d="M426.1,534.9l-35.8,251.7v16.6c0,0,0,14.6,9.5,14.6h34c0,0,3.3-16.9-5.8-21.9c0,0-8.7-3.8-16.1-3.4
							c0,0,6.9-1.4,15.3,1c0,0,54-182.3,59.2-204.5c12.3-0.4,20.1-7.4,26.9-26.6c10.6-29.9,28.1-78,38.7-122.8
							C525.1,486.6,479.9,521.7,426.1,534.9"/>
					</defs>
					<use xlink:href="#SVGID_5_"  style="overflow:visible;fill:#1768C1;"/>
					<clipPath id="SVGID_6_">
						<use xlink:href="#SVGID_5_"  style="overflow:visible;"/>
					</clipPath>
					<rect x="390.2" y="439.6" class="st7" width="161.6" height="378.2"/>
				</g>
			</g>
			<g>
				<defs>
					<path id="SVGID_7_" d="M346.1,793.5c8.4-2.4,15.3-1,15.3-1c-7.4-0.4-16.5,3.4-16.5,3.4c-10.5,5.6-5.8,21.9-5.8,21.9h29.1
						c8.6,0,9.4-12.1,9.5-14.2c0,2.1,0.8,14.2,9.4,14.2h29.1c0,0,4.7-16.3-5.8-21.9c0,0-9.1-3.8-16.5-3.4c0,0,6.9-1.4,15.3,1
						c5.6-36.9,23.2-166.7,35.9-264.3c-20.9,7.4-43.2,11.7-66.6,11.7c-24,0-47-4.5-68.4-12.3C322.8,626.2,340.5,756.6,346.1,793.5"
						/>
				</defs>
				<clipPath id="SVGID_8_">
					<use xlink:href="#SVGID_7_"  style="overflow:visible;"/>
				</clipPath>
				<radialGradient id="SVGID_9_" cx="387.2008" cy="684.5793" r="164.9077" gradientUnits="userSpaceOnUse">
					<stop  offset="0.1561" style="stop-color:#1A55A5"/>
					<stop  offset="0.4259" style="stop-color:#1B53A1"/>
					<stop  offset="0.6644" style="stop-color:#1C4E97"/>
					<stop  offset="0.8902" style="stop-color:#1F4485"/>
					<stop  offset="1" style="stop-color:#213E79"/>
				</radialGradient>
				<rect x="310.1" y="528.6" class="st8" width="134.9" height="289.3"/>
			</g>
			<g>
				<g class="st4">
					<g>
						<defs>
							<rect id="SVGID_10_" x="202.2" y="434.4" width="349.6" height="122.6"/>
						</defs>
						<clipPath id="SVGID_11_">
							<use xlink:href="#SVGID_10_"  style="overflow:visible;"/>
						</clipPath>
						<path class="st9" d="M426.8,534.7c-15.5,4-31.6,6.2-48.3,6.2c-17.3,0-33.9-2.4-49.9-6.6c-54.8-14.2-100.5-50.9-126.4-99.9
							c3.6,16.2,8.3,32.9,13.2,49.2c39.6,45,97.6,73.4,162.2,73.4c64.5,0,122.5-28.4,162.1-73.4c4.4-14.5,8.6-29.4,12.1-44
							C525.3,486.4,480.3,521.3,426.8,534.7"/>
					</g>
				</g>
			</g>
			<path class="st10" d="M567.1,432.5c-5.2,10.6-11.2,20.6-18,30.2c3.7-0.8,7.5-1.8,9-2.9c5.1-4,6.2-12.5,6.5-16.1
				c9.7-2.8,11.6-8.1,11.6-8.1l-1.3-3H567.1z"/>
			<path class="st10" d="M188.2,432.5h-9l-1.3,3c0,0,1.9,5.3,11.6,8.1c0.3,3.6,1.4,12.1,6.5,16.1c1.6,1.3,6.2,2.4,10.3,3.2
				C199.5,453.3,193.4,443.2,188.2,432.5"/>
			<linearGradient id="SVGID_12_" gradientUnits="userSpaceOnUse" x1="336.9713" y1="264.6186" x2="416.9208" y2="264.6186">
				<stop  offset="0.1561" style="stop-color:#1A55A5"/>
				<stop  offset="0.573" style="stop-color:#1D4B91"/>
				<stop  offset="1" style="stop-color:#213E79"/>
			</linearGradient>
			<path class="st11" d="M416.9,264.6c0-25.5-17.9-46.2-40-46.2c-22.1,0-40,20.7-40,46.2c0,25.5,17.9,46.2,40,46.2
				C399,310.8,416.9,290.1,416.9,264.6"/>
			<g>
				<defs>
					<path id="SVGID_13_" d="M337,264.6c0,4.3,0.5,8.4,1.4,12.3c3.3,5,8,9,13.7,11.3c17,6.9,37.2-3.5,45.2-23.2
						c7.2-17.8,1.8-37-11.8-45.6c-2.8-0.7-5.6-1.1-8.6-1.1C354.9,218.4,337,239.1,337,264.6"/>
				</defs>
				<clipPath id="SVGID_14_">
					<use xlink:href="#SVGID_13_"  style="overflow:visible;"/>
				</clipPath>
				
					<linearGradient id="SVGID_15_" gradientUnits="userSpaceOnUse" x1="272.6923" y1="863.0369" x2="322.6737" y2="863.0369" gradientTransform="matrix(1.6937 0.683 0.683 -1.6937 -722.9278 1515.1932)">
					<stop  offset="0.1561" style="stop-color:#1A55A5"/>
					<stop  offset="0.573" style="stop-color:#1D4B91"/>
					<stop  offset="1" style="stop-color:#213E79"/>
				</linearGradient>
				<polygon class="st12" points="346.4,195 431.1,229.1 395,318.6 310.4,284.4 				"/>
			</g>
			<defs>
				<filter id="Adobe_OpacityMaskFilter" filterUnits="userSpaceOnUse" x="335.1" y="211.9" width="53.8" height="63.5">
					<feFlood  style="flood-color:white;flood-opacity:1" result="back"/>
					<feBlend  in="SourceGraphic" in2="back" mode="normal"/>
				</filter>
			</defs>
			<mask maskUnits="userSpaceOnUse" x="335.1" y="211.9" width="53.8" height="63.5" id="SVGID_16_">
				<g class="st13">
					<g>
						<defs>
							<rect id="SVGID_17_" x="349.7" y="229.8" width="24.6" height="27.7"/>
						</defs>
						<clipPath id="SVGID_18_">
							<use xlink:href="#SVGID_17_"  style="overflow:visible;"/>
						</clipPath>
						<g class="st14">
							<g>
								<defs>
									<path id="SVGID_19_" d="M371.2,249.6c4.5-6.9,4-15.2-1.1-18.5c-5.1-3.3-12.9-0.4-17.3,6.5c-4.5,6.9-4,15.2,1.1,18.5
										C358.9,259.4,366.7,256.5,371.2,249.6"/>
								</defs>
								<clipPath id="SVGID_20_" class="st15">
									<use xlink:href="#SVGID_19_"  style="overflow:visible;"/>
								</clipPath>
								<defs>
									<filter id="Adobe_OpacityMaskFilter_1_" filterUnits="userSpaceOnUse" x="335.1" y="211.9" width="53.8" height="63.5">
										<feFlood  style="flood-color:white;flood-opacity:1" result="back"/>
										<feBlend  in="SourceGraphic" in2="back" mode="normal"/>
									</filter>
								</defs>
								<mask maskUnits="userSpaceOnUse" x="335.1" y="211.9" width="53.8" height="63.5" id="SVGID_16_">
									<g class="st16">
										<g class="st14">
										</g>
									</g>
								</mask>
								
									<linearGradient id="SVGID_21_" gradientUnits="userSpaceOnUse" x1="407.2552" y1="1361.712" x2="426.9098" y2="1361.712" gradientTransform="matrix(1.0538 -1.0539 -0.6733 -0.9378 839.3051 1960.1924)">
									<stop  offset="0" style="stop-color:#231F20"/>
									<stop  offset="0.1425" style="stop-color:#231F20"/>
									<stop  offset="0.2447" style="stop-color:#282425"/>
									<stop  offset="0.3742" style="stop-color:#373435"/>
									<stop  offset="0.5184" style="stop-color:#504E4F"/>
									<stop  offset="0.6733" style="stop-color:#737273"/>
									<stop  offset="0.835" style="stop-color:#9F9FA1"/>
									<stop  offset="0.9279" style="stop-color:#BCBDBF"/>
									<stop  offset="1" style="stop-color:#BCBDBF"/>
								</linearGradient>
								<polygon class="st17" points="335.1,241 364.2,211.9 388.9,246.2 359.7,275.4 								"/>
							</g>
						</g>
					</g>
				</g>
			</mask>
			<g class="st18">
				<g>
					<defs>
						<rect id="SVGID_22_" x="349.7" y="229.8" width="24.6" height="27.7"/>
					</defs>
					<clipPath id="SVGID_23_">
						<use xlink:href="#SVGID_22_"  style="overflow:visible;"/>
					</clipPath>
					<g class="st19">
						<defs>
							<path id="SVGID_24_" d="M371.2,249.6c4.5-6.9,4-15.2-1.1-18.5c-5.1-3.3-12.9-0.4-17.3,6.5c-4.5,6.9-4,15.2,1.1,18.5
								C358.9,259.4,366.7,256.5,371.2,249.6"/>
						</defs>
						<clipPath id="SVGID_25_">
							<use xlink:href="#SVGID_24_"  style="overflow:visible;"/>
						</clipPath>
						
							<linearGradient id="SVGID_26_" gradientUnits="userSpaceOnUse" x1="407.2548" y1="1361.7135" x2="426.907" y2="1361.7135" gradientTransform="matrix(1.0538 -1.0539 -0.6733 -0.9378 839.3051 1960.1924)">
							<stop  offset="0" style="stop-color:#FFFFFF"/>
							<stop  offset="0.1425" style="stop-color:#FFFFFF"/>
							<stop  offset="0.9279" style="stop-color:#FFFFFF"/>
							<stop  offset="1" style="stop-color:#FFFFFF"/>
						</linearGradient>
						<polygon class="st20" points="335.1,241 364.2,211.9 388.9,246.2 359.7,275.4 						"/>
					</g>
				</g>
			</g>
			<g class="st21">
				<g>
					<defs>
						<rect id="SVGID_27_" x="340.7" y="283.8" width="72.5" height="27"/>
					</defs>
					<clipPath id="SVGID_28_">
						<use xlink:href="#SVGID_27_"  style="overflow:visible;"/>
					</clipPath>
					<path class="st22" d="M376.9,305.7c-15.5,0-28.9-8.8-36.2-21.9c6.3,15.9,20.1,27,36.2,27c16.1,0,29.9-11.1,36.3-27
						C405.8,296.9,392.4,305.7,376.9,305.7"/>
				</g>
			</g>
			<path class="st23" d="M507.5,292.9c3.3-21.7-9.2-41.5-27.9-44.4c-18.7-2.9-36.6,12.4-39.9,34c-3.3,21.6,9.2,41.5,27.9,44.4
				C486.4,329.7,504.2,314.5,507.5,292.9"/>
			<g>
				<defs>
					<path id="SVGID_29_" d="M439.7,282.5c-0.6,3.6-0.7,7.2-0.4,10.6c2.2,4.7,5.6,8.7,10.2,11.4c13.5,8,32,1.8,41.3-13.8
						c8.4-14.1,6.4-31.2-4.1-40.2c-2.2-0.9-4.6-1.6-7.1-2c-1.5-0.2-3-0.3-4.6-0.3C458.1,248.1,442.8,262.6,439.7,282.5"/>
				</defs>
				<clipPath id="SVGID_30_">
					<use xlink:href="#SVGID_29_"  style="overflow:visible;"/>
				</clipPath>
			</g>
			<g>
				<defs>
					<filter id="Adobe_OpacityMaskFilter_2_" filterUnits="userSpaceOnUse" x="443.5" y="242.5" width="40.5" height="48.3">
						<feFlood  style="flood-color:white;flood-opacity:1" result="back"/>
						<feBlend  in="SourceGraphic" in2="back" mode="normal"/>
					</filter>
				</defs>
				<mask maskUnits="userSpaceOnUse" x="443.5" y="242.5" width="40.5" height="48.3" id="SVGID_31_">
					<g class="st24">
						<g>
							<defs>
								<rect id="SVGID_32_" x="453.6" y="256.2" width="20.3" height="21"/>
							</defs>
							<clipPath id="SVGID_33_">
								<use xlink:href="#SVGID_32_"  style="overflow:visible;"/>
							</clipPath>
							<g class="st14">
								<g>
									<defs>
										<path id="SVGID_34_" d="M470.2,272.4c4.3-4.8,4.9-11.3,1.3-14.5c-3.6-3.2-10-1.8-14.3,3c-4.3,4.8-4.9,11.3-1.3,14.5
											C459.5,278.6,465.9,277.3,470.2,272.4"/>
									</defs>
									<clipPath id="SVGID_35_" class="st25">
										<use xlink:href="#SVGID_34_"  style="overflow:visible;"/>
									</clipPath>
									<defs>
										<filter id="Adobe_OpacityMaskFilter_3_" filterUnits="userSpaceOnUse" x="443.5" y="242.5" width="40.5" height="48.3">
											<feFlood  style="flood-color:white;flood-opacity:1" result="back"/>
											<feBlend  in="SourceGraphic" in2="back" mode="normal"/>
										</filter>
									</defs>
									<mask maskUnits="userSpaceOnUse" x="443.5" y="242.5" width="40.5" height="48.3" id="SVGID_31_">
										<g class="st26">
											<g class="st14">
											</g>
										</g>
									</mask>
									
										<linearGradient id="SVGID_36_" gradientUnits="userSpaceOnUse" x1="349.8707" y1="1369.5148" x2="369.5216" y2="1369.5148" gradientTransform="matrix(0.9474 -0.6959 -0.4131 -0.8115 688.7561 1628.3433)">
										<stop  offset="0" style="stop-color:#231F20"/>
										<stop  offset="0.1425" style="stop-color:#231F20"/>
										<stop  offset="0.2447" style="stop-color:#282425"/>
										<stop  offset="0.3742" style="stop-color:#373435"/>
										<stop  offset="0.5184" style="stop-color:#504E4F"/>
										<stop  offset="0.6733" style="stop-color:#737273"/>
										<stop  offset="0.835" style="stop-color:#9F9FA1"/>
										<stop  offset="0.9279" style="stop-color:#BCBDBF"/>
										<stop  offset="1" style="stop-color:#BCBDBF"/>
									</linearGradient>
									<polygon class="st27" points="443.5,261.2 469,242.5 484,272.1 458.6,290.8 									"/>
								</g>
							</g>
						</g>
					</g>
				</mask>
				<g class="st18">
					<g>
						<defs>
							<rect id="SVGID_37_" x="453.6" y="256.2" width="20.3" height="21"/>
						</defs>
						<clipPath id="SVGID_38_">
							<use xlink:href="#SVGID_37_"  style="overflow:visible;"/>
						</clipPath>
						<g class="st28">
							<defs>
								<path id="SVGID_39_" d="M470.2,272.4c4.3-4.8,4.9-11.3,1.3-14.5c-3.6-3.2-10-1.9-14.3,3c-4.3,4.8-5,11.4-1.3,14.6
									C459.5,278.6,465.9,277.3,470.2,272.4"/>
							</defs>
							<clipPath id="SVGID_40_">
								<use xlink:href="#SVGID_39_"  style="overflow:visible;"/>
							</clipPath>
							
								<linearGradient id="SVGID_41_" gradientUnits="userSpaceOnUse" x1="349.8707" y1="1369.5148" x2="369.5216" y2="1369.5148" gradientTransform="matrix(0.9474 -0.6959 -0.4131 -0.8115 688.7561 1628.3433)">
								<stop  offset="0" style="stop-color:#FFFFFF"/>
								<stop  offset="0.1425" style="stop-color:#FFFFFF"/>
								<stop  offset="0.9279" style="stop-color:#FFFFFF"/>
								<stop  offset="1" style="stop-color:#FFFFFF"/>
							</linearGradient>
							<polygon class="st29" points="443.5,261.2 469,242.5 484,272.1 458.6,290.8 							"/>
						</g>
					</g>
				</g>
				<g class="st30">
					<g>
						<defs>
							<rect id="SVGID_42_" x="440.4" y="299.3" width="61.5" height="27.9"/>
						</defs>
						<clipPath id="SVGID_43_">
							<use xlink:href="#SVGID_42_"  style="overflow:visible;"/>
						</clipPath>
						<path class="st31" d="M468.3,322.6c-13.1-2-23.3-11.3-27.9-23.3c3.3,14.3,13.6,25.5,27.2,27.6c13.7,2.1,26.8-5.5,34.2-18.2
							C493.9,318.8,481.4,324.6,468.3,322.6"/>
					</g>
				</g>
				<path class="st23" d="M247.6,292.9c-3.3-21.7,9.2-41.5,27.9-44.4c18.7-2.9,36.6,12.4,39.9,34c3.3,21.6-9.2,41.5-27.9,44.4
					C268.8,329.7,250.9,314.5,247.6,292.9"/>
			</g>
			<g>
				<defs>
					<path id="SVGID_44_" d="M275.5,248.5c-2.5,0.4-4.8,1-7.1,2c-10.5,9.1-12.5,26.1-4.1,40.3c9.3,15.6,27.7,21.8,41.3,13.8
						c4.6-2.7,8-6.7,10.2-11.4c0.3-3.4,0.2-7-0.4-10.6c-3-19.9-18.4-34.3-35.4-34.3C278.5,248.1,277,248.3,275.5,248.5"/>
				</defs>
				<clipPath id="SVGID_45_">
					<use xlink:href="#SVGID_44_"  style="overflow:visible;"/>
				</clipPath>
			</g>
			<defs>
				<filter id="Adobe_OpacityMaskFilter_4_" filterUnits="userSpaceOnUse" x="271.1" y="242.5" width="40.5" height="48.3">
					<feFlood  style="flood-color:white;flood-opacity:1" result="back"/>
					<feBlend  in="SourceGraphic" in2="back" mode="normal"/>
				</filter>
			</defs>
			<mask maskUnits="userSpaceOnUse" x="271.1" y="242.5" width="40.5" height="48.3" id="SVGID_46_">
				<g class="st32">
					<g>
						<defs>
							<rect id="SVGID_47_" x="281.2" y="256.2" width="20.3" height="21"/>
						</defs>
						<clipPath id="SVGID_48_">
							<use xlink:href="#SVGID_47_"  style="overflow:visible;"/>
						</clipPath>
						<g class="st14">
							<g>
								<defs>
									<path id="SVGID_49_" d="M284.9,272.4c-4.3-4.8-4.9-11.3-1.4-14.5c3.6-3.2,10-1.8,14.3,3c4.3,4.8,4.9,11.3,1.3,14.5
										C295.6,278.6,289.2,277.3,284.9,272.4"/>
								</defs>
								<clipPath id="SVGID_50_" class="st33">
									<use xlink:href="#SVGID_49_"  style="overflow:visible;"/>
								</clipPath>
								<defs>
									<filter id="Adobe_OpacityMaskFilter_5_" filterUnits="userSpaceOnUse" x="271.1" y="242.5" width="40.5" height="48.3">
										<feFlood  style="flood-color:white;flood-opacity:1" result="back"/>
										<feBlend  in="SourceGraphic" in2="back" mode="normal"/>
									</filter>
								</defs>
								<mask maskUnits="userSpaceOnUse" x="271.1" y="242.5" width="40.5" height="48.3" id="SVGID_46_">
									<g class="st34">
										<g class="st14">
										</g>
									</g>
								</mask>
								
									<linearGradient id="SVGID_51_" gradientUnits="userSpaceOnUse" x1="1193.6433" y1="645.5803" x2="1213.3051" y2="645.5803" gradientTransform="matrix(-0.9477 -0.6961 0.4132 -0.8118 1165.1282 1628.5066)">
									<stop  offset="0" style="stop-color:#231F20"/>
									<stop  offset="0.1425" style="stop-color:#231F20"/>
									<stop  offset="0.2447" style="stop-color:#282425"/>
									<stop  offset="0.3742" style="stop-color:#373435"/>
									<stop  offset="0.5184" style="stop-color:#504E4F"/>
									<stop  offset="0.6733" style="stop-color:#737273"/>
									<stop  offset="0.835" style="stop-color:#9F9FA1"/>
									<stop  offset="0.9279" style="stop-color:#BCBDBF"/>
									<stop  offset="1" style="stop-color:#BCBDBF"/>
								</linearGradient>
								<polygon class="st35" points="311.6,261.2 286.1,242.5 271.1,272.1 296.5,290.8 								"/>
							</g>
						</g>
					</g>
				</g>
			</mask>
			<g class="st18">
				<g>
					<defs>
						<rect id="SVGID_52_" x="281.2" y="256.2" width="20.3" height="21"/>
					</defs>
					<clipPath id="SVGID_53_">
						<use xlink:href="#SVGID_52_"  style="overflow:visible;"/>
					</clipPath>
					<g class="st36">
						<defs>
							<path id="SVGID_54_" d="M284.9,272.4c-4.3-4.8-4.9-11.3-1.4-14.5c3.6-3.2,10-1.9,14.3,3c4.3,4.8,4.9,11.4,1.3,14.6
								C295.6,278.6,289.2,277.3,284.9,272.4"/>
						</defs>
						<clipPath id="SVGID_55_">
							<use xlink:href="#SVGID_54_"  style="overflow:visible;"/>
						</clipPath>
						
							<linearGradient id="SVGID_56_" gradientUnits="userSpaceOnUse" x1="1193.6426" y1="645.5785" x2="1213.3043" y2="645.5785" gradientTransform="matrix(-0.9477 -0.6961 0.4132 -0.8118 1165.1282 1628.5045)">
							<stop  offset="0" style="stop-color:#FFFFFF"/>
							<stop  offset="0.1425" style="stop-color:#FFFFFF"/>
							<stop  offset="0.9279" style="stop-color:#FFFFFF"/>
							<stop  offset="1" style="stop-color:#FFFFFF"/>
						</linearGradient>
						<polygon class="st37" points="311.6,261.2 286.1,242.5 271.1,272.1 296.5,290.8 						"/>
					</g>
				</g>
			</g>
			<g class="st30">
				<g>
					<path class="st38" d="M286.8,322.6c13.1-2,23.3-11.3,27.9-23.3c-3.3,14.3-13.6,25.5-27.2,27.6c-13.7,2.1-26.8-5.5-34.2-18.2
						C261.2,318.8,273.7,324.6,286.8,322.6"/>
				</g>
			</g>
			<g>
				<defs>
					<path id="SVGID_57_" d="M200,340.9c0-98.1,79.8-177.9,177.9-177.9c98.1,0,177.9,79.8,177.9,177.9
						c0,98.1-79.8,177.9-177.9,177.9C279.8,518.8,200,439,200,340.9 M167.4,340.9c0,116.1,94.4,210.5,210.5,210.5
						c116.1,0,210.4-94.4,210.4-210.5c0-116.1-94.4-210.5-210.4-210.5C261.8,130.5,167.4,224.9,167.4,340.9"/>
				</defs>
				<linearGradient id="SVGID_58_" gradientUnits="userSpaceOnUse" x1="229.2515" y1="340.9283" x2="526.7258" y2="340.9283">
					<stop  offset="0.1561" style="stop-color:#1A55A5"/>
					<stop  offset="0.573" style="stop-color:#1D4B91"/>
					<stop  offset="1" style="stop-color:#213E79"/>
				</linearGradient>
				<use xlink:href="#SVGID_57_"  style="overflow:visible;fill:url(#SVGID_58_);"/>
				<clipPath id="SVGID_59_">
					<use xlink:href="#SVGID_57_"  style="overflow:visible;"/>
				</clipPath>
				
					<linearGradient id="SVGID_60_" gradientUnits="userSpaceOnUse" x1="606.381" y1="879.1294" x2="626.0248" y2="879.1294" gradientTransform="matrix(15.1437 -15.1437 -15.1437 -15.1437 4359.667 22985.6465)">
					<stop  offset="0.1561" style="stop-color:#1A55A5"/>
					<stop  offset="0.573" style="stop-color:#1D4B91"/>
					<stop  offset="1" style="stop-color:#213E79"/>
				</linearGradient>
				<polygon class="st39" points="-43.1,340.9 377.8,-80 798.8,340.9 377.8,761.9 				"/>
			</g>
			<g class="st40">
				<defs>
					<path id="SVGID_61_" class="st40" d="M200,340.9c0-98.1,79.8-177.9,177.9-177.9c98.1,0,177.9,79.8,177.9,177.9
						c0,98.1-79.8,177.9-177.9,177.9C279.8,518.8,200,439,200,340.9 M167.4,340.9c0,116.1,94.4,210.5,210.5,210.5
						c116.1,0,210.4-94.4,210.4-210.5c0-116.1-94.4-210.5-210.4-210.5C261.8,130.5,167.4,224.9,167.4,340.9"/>
				</defs>
				<use xlink:href="#SVGID_61_"  style="overflow:visible;fill:#FFFFFF;"/>
				<clipPath id="SVGID_62_">
					<use xlink:href="#SVGID_61_"  style="overflow:visible;"/>
				</clipPath>
				
					<rect x="80.2" y="43.3" transform="matrix(0.7071 -0.7071 0.7071 0.7071 -130.4055 367.0292)" class="st41" width="595.3" height="595.3"/>
			</g>
			<path class="st3" d="M577.5,433c-2.3,5.7-8.4,8.6-13.6,6.5c-5.2-2.1-5.6-4.4-4.3-13.2l2.6-16.2c1.6-8.1,5-9.1,15.6-5.1
				c5.2,2.1,7.6,9.4,4.2,16.8L577.5,433z"/>
			<path class="st3" d="M176.6,433c2.3,5.7,8.4,8.6,13.6,6.5c5.2-2.1,5.6-4.4,4.3-13.2l-2.6-16.2c-1.6-8.1-5-9.1-15.6-5.1
				c-5.2,2.1-7.6,9.4-4.3,16.8L176.6,433z"/>
		</g>
	</g>
	<g>
		<rect x="660" y="702.5" class="st1" width="19.3" height="114.6"/>
		<polygon class="st1" points="620.9,702.5 601.6,702.5 601.6,817.1 620.9,817.1 620.9,765.8 651.9,765.8 651.9,751 620.9,751 		"/>
		<path class="st1" d="M761.1,778.6c0,16.9-9.8,22.9-19.1,22.9c-9.4,0-19.4-6-19.4-22.9v-76.1h-19.3v76.1c0,14.1,3.2,24.8,9.5,31.8
			c6.1,6.8,15,10,27.3,10c12.6,0,22.2-3.5,29.5-10.8c7.3-7.3,10.8-17,10.8-29.6v-77.5h-19.3V778.6z"/>
		<path class="st1" d="M991.7,699.2c-13.5,0-23.9,3.6-30.9,10.7c-7.1,7.2-10.6,17.8-10.6,31.5v75.7h19.3v-32.3h31.3v-14.7h-31.3
			v-27.4c0-18.2,10.3-24.6,20-24.6c9.4,0,13.9,5.1,15.7,8.1c2.4,3.9,3.4,9,3.4,16.5v74.4h19.3V740c0-14.7-2.9-25.4-8.7-31.7
			C1013.7,702.2,1004.5,699.2,991.7,699.2z"/>
		<path class="st1" d="M1092.4,699.2c-12.6,0-22.2,3.5-29.5,10.8c-7.3,7.3-10.8,17-10.8,29.6v77.5h19.3V741
			c0-16.9,9.8-22.9,19.1-22.9c9.4,0,19.4,6,19.4,22.9v76.1h19.3V741c0-14.1-3.2-24.8-9.5-31.8
			C1113.6,702.4,1104.7,699.2,1092.4,699.2z"/>
		<rect x="1266.8" y="700.7" class="st1" width="19.3" height="114.6"/>
		<polygon class="st1" points="1227.7,700.7 1208.4,700.7 1208.4,815.3 1227.7,815.3 1227.7,763.9 1258.7,763.9 1258.7,749.1 
			1227.7,749.1 		"/>
		<path class="st1" d="M1368.1,776.9c0,16.9-9.8,22.9-19.1,22.9c-9.4,0-19.4-6-19.4-22.9v-76.1h-19.3v76.1c0,14.1,3.2,24.8,9.5,31.8
			c6.1,6.8,15,10,27.3,10c12.6,0,22.2-3.5,29.5-10.8c7.3-7.3,10.8-17,10.8-29.6v-77.5h-19.3V776.9z"/>
		<path class="st1" d="M1497.4,760.9c-0.6-0.6-1.3-1.2-2-1.8l-4.1-3.4l2.2-4.8c1.9-4.2,2.8-9.2,2.8-15.2c0-10.7-2.9-18.6-9.1-24.8
			c-6.2-6.2-14.1-9.1-24.9-9.1h-19.9l-7-0.1h-19.3v114.6h20.3l7,0.1h27.8c12,0,21-2.7,26.9-7.9c5.7-5.1,8.4-12.4,8.4-22.9
			C1506.4,774.9,1503.6,767,1497.4,760.9z M1471.2,801.7h-35.8v-85.1h25.7c15.3,0,20.8,9,20.8,17.4c0,8.5-5.5,17.7-20.8,17.7h-6.4
			v14.8l7,0.1h9.7c15.3,0,20.8,9,20.8,17.4C1492,792.6,1486.5,801.7,1471.2,801.7z"/>
		<path class="st1" d="M894.4,699.1c-11.3,0-19.9,3.5-26.4,10.8c-0.1,0.1-0.1,0.2-0.2,0.3c-0.3-0.3-0.4-0.8-0.7-1.1
			c-5.5-6.8-13.5-10-24.5-10c-11.3,0-19.9,3.5-26.4,10.8c-6.5,7.3-9.7,17-9.7,29.6V817h17.3v-76.1c0-16.9,8.8-22.9,17.1-22.9
			c8.4,0,17.4,6,17.4,22.9V817h0.1h17.2h0.1v-76.1c0-16.9,8.8-22.9,17.1-22.9c8.4,0,17.4,6,17.4,22.9V817h17.3v-76.1
			c0-14.1-2.9-24.8-8.5-31.8C913.4,702.3,905.4,699.1,894.4,699.1z"/>
	</g>
</g>
</svg>
